<svg width="233" height="54" viewBox="0 0 233 54" fill="none" xmlns="http://www.w3.org/2000/svg">
<path d="M3.45016 0.430176C2.53073 0.830011 1.7468 1.4876 1.19312 2.32344C0.639435 3.15929 0.339705 4.13762 0.330156 5.14018L0.000155641 48.2902C-0.00511756 48.9704 0.123652 49.6451 0.379111 50.2755C0.63457 50.906 1.01172 51.48 1.48901 51.9647C1.96631 52.4495 2.53441 52.8354 3.16088 53.1006C3.78734 53.3658 4.4599 53.5049 5.14016 53.5102L29.3702 53.7002C-2.99984 41.1002 3.45016 0.430176 3.45016 0.430176Z" fill="#010205"/>
<path d="M45.6504 14.94C40.3104 15.34 41.9504 14.74 36.6504 14.83C33.9004 14.83 31.0504 15.42 28.9304 17.29C27.7139 18.446 26.7534 19.8442 26.1109 21.3945C25.4684 22.9447 25.1582 24.6125 25.2004 26.29C25.0983 28.0494 25.6569 29.7835 26.7668 31.1524C27.8767 32.5213 29.4579 33.4263 31.2004 33.69C31.9738 33.8264 32.7556 33.9099 33.5404 33.94C34.5862 33.9457 35.6018 33.5892 36.4148 32.9312C37.2277 32.2732 37.788 31.3541 38.0004 30.33L39.5004 23.33C40.8689 23.3461 42.2167 23.6656 43.4468 24.2655C44.6769 24.8655 45.7585 25.7309 46.6137 26.7994C47.4689 27.8679 48.0763 29.1129 48.3922 30.4445C48.7081 31.7761 48.7245 33.1613 48.4404 34.5C48.4357 34.5198 48.4357 34.5403 48.4404 34.56C47.9894 36.6902 46.95 38.6511 45.4404 40.22C48.1665 40.1725 50.8861 39.9386 53.5804 39.52L53.8004 11.04C52.9266 12.34 51.7028 13.3662 50.2704 14C48.7889 14.5527 47.23 14.8699 45.6504 14.94Z" fill="#6B2ADC"/>
<path d="M12.2702 24.0002C12.511 22.0919 12.988 20.2209 13.6902 18.4302C13.8202 18.1202 13.9402 17.8102 14.0802 17.5102L14.1402 17.3902C14.2669 17.0902 14.4069 16.8002 14.5602 16.5202C18.4602 8.81019 26.6402 4.08019 37.1002 4.21019C37.6202 4.21019 38.1002 4.21019 38.6202 4.27019L53.7302 4.46019C53.4836 3.31186 52.8549 2.28111 51.9467 1.53639C51.0385 0.791671 49.9046 0.377014 48.7302 0.360186L5.5502 0.000185585C4.82773 -0.00595961 4.11211 0.140572 3.4502 0.430186C3.9202 4.00019 5.8102 14.5702 12.2702 24.0002Z" fill="#6B2ADC"/>
<path d="M40.34 43.3702C37.4631 43.9961 34.5333 44.3477 31.59 44.4202C19.65 44.2702 11.93 37.1902 12.05 27.0002C12.0671 25.9968 12.1406 24.9953 12.27 24.0002C5.81001 14.5702 3.92001 4.00018 3.45001 0.430176C3.45001 0.430176 -2.99999 41.1002 29.37 53.7002L48.29 53.8502C49.6648 53.8582 50.9865 53.3204 51.9652 52.3548C52.9439 51.3893 53.4994 50.0749 53.51 48.7002L53.58 39.5502C50.8858 39.9687 48.1661 40.2026 45.44 40.2502C44.0494 41.7273 42.2883 42.8047 40.34 43.3702Z" fill="#010205"/>
<path opacity="0.15" d="M51.7802 1.38037C52.2403 2.20173 52.4782 3.12894 52.4702 4.07037L52.2002 39.4104L52.1302 48.9304C52.1203 49.9649 51.8134 50.9747 51.2461 51.8399C50.6788 52.705 49.875 53.3889 48.9302 53.8104C50.1865 53.6642 51.3462 53.0643 52.1914 52.1233C53.0367 51.1824 53.5092 49.9651 53.5202 48.7004L53.5902 39.5504L53.8502 5.55037C53.8537 4.74212 53.6684 3.94422 53.309 3.22025C52.9496 2.49628 52.4261 1.86625 51.7802 1.38037Z" fill="#FCFCFC"/>
<path style="mix-blend-mode:overlay" opacity="0.62" d="M27.5004 53.6804H29.3404C-2.9996 41.0904 3.4204 0.42041 3.4204 0.42041C2.81377 0.691189 2.26404 1.07464 1.8004 1.55041C1.1604 7.00041 -1.6996 42.0004 27.5004 53.6804Z" fill="url(#paint0_linear_729_607)"/>
<path d="M73.5859 23.0547C73.4349 22.5807 73.2318 22.1562 72.9766 21.7812C72.7266 21.401 72.4271 21.0781 72.0781 20.8125C71.7292 20.5417 71.3307 20.3359 70.8828 20.1953C70.4401 20.0547 69.9531 19.9844 69.4219 19.9844C68.5208 19.9844 67.7083 20.2161 66.9844 20.6797C66.2604 21.1432 65.6875 21.8229 65.2656 22.7187C64.849 23.6094 64.6406 24.7005 64.6406 25.9922C64.6406 27.2891 64.8516 28.3854 65.2734 29.2812C65.6953 30.1771 66.2734 30.8568 67.0078 31.3203C67.7422 31.7839 68.5781 32.0156 69.5156 32.0156C70.3854 32.0156 71.1432 31.8385 71.7891 31.4844C72.4401 31.1302 72.9427 30.6302 73.2969 29.9844C73.6563 29.3333 73.8359 28.5677 73.8359 27.6875L74.4609 27.8047H69.8828V25.8125H76.1719V27.6328C76.1719 28.9766 75.8854 30.1432 75.3125 31.1328C74.7448 32.1172 73.9583 32.8776 72.9531 33.4141C71.9531 33.9505 70.8073 34.2187 69.5156 34.2187C68.0677 34.2187 66.7969 33.8854 65.7031 33.2188C64.6146 32.5521 63.7656 31.6068 63.1563 30.3828C62.5469 29.1536 62.2422 27.6953 62.2422 26.0078C62.2422 24.7318 62.4193 23.5859 62.7734 22.5703C63.1276 21.5547 63.625 20.6927 64.2656 19.9844C64.9115 19.2708 65.6693 18.7266 66.5391 18.3516C67.4141 17.9714 68.3698 17.7812 69.4063 17.7812C70.2708 17.7812 71.0755 17.9089 71.8203 18.1641C72.5703 18.4193 73.237 18.7812 73.8203 19.25C74.4089 19.7187 74.8958 20.276 75.2813 20.9219C75.6667 21.5625 75.9271 22.2734 76.0625 23.0547H73.5859ZM81.661 34.2656C80.9006 34.2656 80.2131 34.125 79.5985 33.8437C78.9839 33.5573 78.497 33.1432 78.1376 32.6016C77.7834 32.0599 77.6063 31.3958 77.6063 30.6094C77.6063 29.9323 77.7365 29.375 77.997 28.9375C78.2574 28.5 78.6089 28.1536 79.0516 27.8984C79.4943 27.6432 79.9891 27.4505 80.536 27.3203C81.0829 27.1901 81.6402 27.0911 82.2079 27.0234C82.9266 26.9401 83.51 26.8724 83.9579 26.8203C84.4058 26.763 84.7313 26.6719 84.9345 26.5469C85.1376 26.4219 85.2391 26.2187 85.2391 25.9375V25.8828C85.2391 25.2005 85.0464 24.6719 84.661 24.2969C84.2808 23.9219 83.7131 23.7344 82.9579 23.7344C82.1714 23.7344 81.5516 23.9089 81.0985 24.2578C80.6506 24.6016 80.3407 24.9844 80.1688 25.4062L77.9735 24.9062C78.2339 24.1771 78.6141 23.5885 79.1141 23.1406C79.6193 22.6875 80.2001 22.3594 80.8563 22.1562C81.5126 21.9479 82.2027 21.8438 82.9266 21.8438C83.4058 21.8438 83.9136 21.901 84.4501 22.0156C84.9917 22.125 85.497 22.3281 85.9657 22.625C86.4397 22.9219 86.8277 23.3464 87.1298 23.8984C87.4318 24.4453 87.5829 25.1563 87.5829 26.0313V34H85.3016V32.3594H85.2079C85.0568 32.6615 84.8303 32.9583 84.5282 33.25C84.2261 33.5417 83.8381 33.7839 83.3641 33.9766C82.8902 34.1693 82.3225 34.2656 81.661 34.2656ZM82.1688 32.3906C82.8147 32.3906 83.3667 32.263 83.8251 32.0078C84.2886 31.7526 84.6402 31.4193 84.8798 31.0078C85.1246 30.5911 85.247 30.1458 85.247 29.6719V28.125C85.1636 28.2083 85.0022 28.2865 84.7626 28.3594C84.5282 28.4271 84.26 28.487 83.9579 28.5391C83.6558 28.5859 83.3615 28.6302 83.0751 28.6719C82.7886 28.7083 82.549 28.7396 82.3563 28.7656C81.9032 28.8229 81.4891 28.9193 81.1141 29.0547C80.7443 29.1901 80.4475 29.3854 80.2235 29.6406C80.0048 29.8906 79.8954 30.224 79.8954 30.6406C79.8954 31.2187 80.1089 31.6562 80.536 31.9531C80.9631 32.2448 81.5074 32.3906 82.1688 32.3906ZM90.0017 34V18H92.3377V23.9453H92.4783C92.6137 23.6953 92.809 23.4062 93.0642 23.0781C93.3194 22.75 93.6736 22.4635 94.1267 22.2187C94.5798 21.9688 95.1788 21.8438 95.9236 21.8438C96.8923 21.8438 97.7569 22.0885 98.5173 22.5781C99.2778 23.0677 99.8741 23.7734 100.306 24.6953C100.744 25.6172 100.963 26.7266 100.963 28.0234C100.963 29.3203 100.747 30.4323 100.314 31.3594C99.8819 32.2812 99.2882 32.9922 98.533 33.4922C97.7778 33.987 96.9158 34.2344 95.947 34.2344C95.2179 34.2344 94.6215 34.112 94.158 33.8672C93.6996 33.6224 93.3403 33.3359 93.0798 33.0078C92.8194 32.6797 92.6189 32.388 92.4783 32.1328H92.283V34H90.0017ZM92.2908 28C92.2908 28.8437 92.4132 29.5833 92.658 30.2188C92.9028 30.8542 93.2569 31.3516 93.7205 31.7109C94.184 32.0651 94.7517 32.2422 95.4236 32.2422C96.1215 32.2422 96.7048 32.0573 97.1736 31.6875C97.6423 31.3125 97.9965 30.8047 98.2361 30.1641C98.4809 29.5234 98.6033 28.8021 98.6033 28C98.6033 27.2083 98.4835 26.4974 98.2439 25.8672C98.0095 25.237 97.6554 24.7396 97.1814 24.375C96.7127 24.0104 96.1267 23.8281 95.4236 23.8281C94.7465 23.8281 94.1736 24.0026 93.7048 24.3516C93.2413 24.7005 92.8897 25.1875 92.6502 25.8125C92.4106 26.4375 92.2908 27.1667 92.2908 28ZM102.706 34V22H104.964V23.9062H105.089C105.307 23.2604 105.693 22.7526 106.245 22.3828C106.802 22.0078 107.432 21.8203 108.135 21.8203C108.281 21.8203 108.453 21.8255 108.651 21.8359C108.854 21.8464 109.013 21.8594 109.128 21.875V24.1094C109.034 24.0833 108.867 24.0547 108.628 24.0234C108.388 23.987 108.148 23.9687 107.909 23.9687C107.357 23.9687 106.865 24.0859 106.432 24.3203C106.005 24.5495 105.667 24.8698 105.417 25.2812C105.167 25.6875 105.042 26.151 105.042 26.6719V34H102.706ZM110.269 34V22H112.605V34H110.269ZM111.449 20.1484C111.042 20.1484 110.694 20.013 110.402 19.7422C110.115 19.4661 109.972 19.138 109.972 18.7578C109.972 18.3724 110.115 18.0443 110.402 17.7734C110.694 17.4974 111.042 17.3594 111.449 17.3594C111.855 17.3594 112.201 17.4974 112.488 17.7734C112.779 18.0443 112.925 18.3724 112.925 18.7578C112.925 19.138 112.779 19.4661 112.488 19.7422C112.201 20.013 111.855 20.1484 111.449 20.1484ZM120.039 34.2422C118.857 34.2422 117.839 33.9896 116.985 33.4844C116.136 32.974 115.48 32.2578 115.016 31.3359C114.558 30.4089 114.329 29.3229 114.329 28.0781C114.329 26.849 114.558 25.7656 115.016 24.8281C115.48 23.8906 116.125 23.1589 116.954 22.6328C117.787 22.1068 118.761 21.8438 119.875 21.8438C120.552 21.8438 121.209 21.9557 121.844 22.1797C122.48 22.4036 123.05 22.7552 123.555 23.2344C124.06 23.7135 124.459 24.3359 124.75 25.1016C125.042 25.862 125.188 26.7865 125.188 27.875V28.7031H115.649V26.9531H122.899C122.899 26.3385 122.774 25.7943 122.524 25.3203C122.274 24.8411 121.922 24.4635 121.469 24.1875C121.021 23.9115 120.495 23.7734 119.891 23.7734C119.235 23.7734 118.662 23.9349 118.172 24.2578C117.688 24.5755 117.313 24.9922 117.047 25.5078C116.787 26.0182 116.657 26.5729 116.657 27.1719V28.5391C116.657 29.3411 116.797 30.0234 117.079 30.5859C117.365 31.1484 117.763 31.5781 118.274 31.875C118.784 32.1667 119.381 32.3125 120.063 32.3125C120.506 32.3125 120.909 32.25 121.274 32.125C121.638 31.9948 121.954 31.8021 122.219 31.5469C122.485 31.2917 122.688 30.9766 122.829 30.6016L125.039 31C124.862 31.651 124.545 32.2214 124.086 32.7109C123.633 33.1953 123.063 33.5729 122.375 33.8437C121.693 34.1094 120.914 34.2422 120.039 34.2422ZM129.236 18V34H126.9V18H129.236ZM134.99 34.2656C134.23 34.2656 133.542 34.125 132.928 33.8437C132.313 33.5573 131.826 33.1432 131.467 32.6016C131.113 32.0599 130.936 31.3958 130.936 30.6094C130.936 29.9323 131.066 29.375 131.326 28.9375C131.587 28.5 131.938 28.1536 132.381 27.8984C132.824 27.6432 133.319 27.4505 133.865 27.3203C134.412 27.1901 134.97 27.0911 135.537 27.0234C136.256 26.9401 136.839 26.8724 137.287 26.8203C137.735 26.763 138.061 26.6719 138.264 26.5469C138.467 26.4219 138.569 26.2187 138.569 25.9375V25.8828C138.569 25.2005 138.376 24.6719 137.99 24.2969C137.61 23.9219 137.042 23.7344 136.287 23.7344C135.501 23.7344 134.881 23.9089 134.428 24.2578C133.98 24.6016 133.67 24.9844 133.498 25.4062L131.303 24.9062C131.563 24.1771 131.944 23.5885 132.444 23.1406C132.949 22.6875 133.529 22.3594 134.186 22.1562C134.842 21.9479 135.532 21.8438 136.256 21.8438C136.735 21.8438 137.243 21.901 137.779 22.0156C138.321 22.125 138.826 22.3281 139.295 22.625C139.769 22.9219 140.157 23.3464 140.459 23.8984C140.761 24.4453 140.912 25.1563 140.912 26.0313V34H138.631V32.3594H138.537C138.386 32.6615 138.16 32.9583 137.858 33.25C137.555 33.5417 137.167 33.7839 136.694 33.9766C136.22 34.1693 135.652 34.2656 134.99 34.2656ZM135.498 32.3906C136.144 32.3906 136.696 32.263 137.154 32.0078C137.618 31.7526 137.97 31.4193 138.209 31.0078C138.454 30.5911 138.576 30.1458 138.576 29.6719V28.125C138.493 28.2083 138.332 28.2865 138.092 28.3594C137.858 28.4271 137.589 28.487 137.287 28.5391C136.985 28.5859 136.691 28.6302 136.404 28.6719C136.118 28.7083 135.878 28.7396 135.686 28.7656C135.233 28.8229 134.819 28.9193 134.444 29.0547C134.074 29.1901 133.777 29.3854 133.553 29.6406C133.334 29.8906 133.225 30.224 133.225 30.6406C133.225 31.2187 133.438 31.6562 133.865 31.9531C134.292 32.2448 134.837 32.3906 135.498 32.3906ZM149.625 34H147.062L152.82 18H155.609L161.367 34H158.805L154.281 20.9062H154.156L149.625 34ZM150.055 27.7344H158.367V29.7656H150.055V27.7344ZM167.448 38.75C166.495 38.75 165.675 38.625 164.987 38.375C164.305 38.125 163.748 37.7943 163.315 37.3828C162.883 36.9714 162.56 36.5208 162.346 36.0313L164.354 35.2031C164.495 35.4323 164.682 35.6745 164.917 35.9297C165.156 36.1901 165.479 36.4115 165.886 36.5938C166.297 36.776 166.826 36.8672 167.471 36.8672C168.357 36.8672 169.089 36.651 169.667 36.2188C170.245 35.7917 170.534 35.1094 170.534 34.1719V31.8125H170.386C170.245 32.0677 170.042 32.3516 169.776 32.6641C169.516 32.9766 169.156 33.2474 168.698 33.4766C168.24 33.7057 167.643 33.8203 166.909 33.8203C165.961 33.8203 165.107 33.599 164.346 33.1562C163.591 32.7083 162.992 32.0495 162.55 31.1797C162.112 30.3047 161.893 29.2292 161.893 27.9531C161.893 26.6771 162.11 25.5833 162.542 24.6719C162.979 23.7604 163.578 23.0625 164.339 22.5781C165.099 22.0885 165.961 21.8438 166.925 21.8438C167.669 21.8438 168.271 21.9688 168.729 22.2187C169.188 22.4635 169.544 22.75 169.8 23.0781C170.06 23.4062 170.261 23.6953 170.401 23.9453H170.573V22H172.862V34.2656C172.862 35.2969 172.623 36.1432 172.143 36.8047C171.664 37.4661 171.016 37.9557 170.198 38.2734C169.386 38.5911 168.469 38.75 167.448 38.75ZM167.425 31.8828C168.096 31.8828 168.664 31.7266 169.128 31.4141C169.596 31.0964 169.951 30.6432 170.19 30.0547C170.435 29.4609 170.557 28.75 170.557 27.9219C170.557 27.1146 170.438 26.4036 170.198 25.7891C169.958 25.1745 169.607 24.6953 169.143 24.3516C168.68 24.0026 168.107 23.8281 167.425 23.8281C166.721 23.8281 166.136 24.0104 165.667 24.375C165.198 24.7344 164.844 25.224 164.604 25.8437C164.37 26.4635 164.253 27.1562 164.253 27.9219C164.253 28.7083 164.373 29.3984 164.612 29.9922C164.852 30.5859 165.206 31.0495 165.675 31.3828C166.149 31.7161 166.732 31.8828 167.425 31.8828ZM182.716 29.0234V22H185.06V34H182.763V31.9219H182.638C182.362 32.5625 181.92 33.0964 181.31 33.5234C180.706 33.9453 179.953 34.1563 179.052 34.1563C178.282 34.1563 177.599 33.987 177.006 33.6484C176.417 33.3047 175.953 32.7969 175.615 32.125C175.282 31.4531 175.115 30.6224 175.115 29.6328V22H177.451V29.3516C177.451 30.1693 177.677 30.8203 178.131 31.3047C178.584 31.7891 179.172 32.0312 179.896 32.0312C180.334 32.0312 180.769 31.9219 181.201 31.7031C181.638 31.4844 182 31.1536 182.287 30.7109C182.578 30.2682 182.722 29.7057 182.716 29.0234ZM187.319 34V22H189.655V34H187.319ZM188.499 20.1484C188.092 20.1484 187.743 20.013 187.452 19.7422C187.165 19.4661 187.022 19.138 187.022 18.7578C187.022 18.3724 187.165 18.0443 187.452 17.7734C187.743 17.4974 188.092 17.3594 188.499 17.3594C188.905 17.3594 189.251 17.4974 189.538 17.7734C189.829 18.0443 189.975 18.3724 189.975 18.7578C189.975 19.138 189.829 19.4661 189.538 19.7422C189.251 20.013 188.905 20.1484 188.499 20.1484ZM194.253 18V34H191.917V18H194.253ZM200.008 34.2656C199.248 34.2656 198.56 34.125 197.946 33.8437C197.331 33.5573 196.844 33.1432 196.485 32.6016C196.131 32.0599 195.953 31.3958 195.953 30.6094C195.953 29.9323 196.084 29.375 196.344 28.9375C196.604 28.5 196.956 28.1536 197.399 27.8984C197.841 27.6432 198.336 27.4505 198.883 27.3203C199.43 27.1901 199.987 27.0911 200.555 27.0234C201.274 26.9401 201.857 26.8724 202.305 26.8203C202.753 26.763 203.078 26.6719 203.282 26.5469C203.485 26.4219 203.586 26.2187 203.586 25.9375V25.8828C203.586 25.2005 203.394 24.6719 203.008 24.2969C202.628 23.9219 202.06 23.7344 201.305 23.7344C200.519 23.7344 199.899 23.9089 199.446 24.2578C198.998 24.6016 198.688 24.9844 198.516 25.4062L196.321 24.9062C196.581 24.1771 196.961 23.5885 197.461 23.1406C197.966 22.6875 198.547 22.3594 199.203 22.1562C199.86 21.9479 200.55 21.8438 201.274 21.8438C201.753 21.8438 202.261 21.901 202.797 22.0156C203.339 22.125 203.844 22.3281 204.313 22.625C204.787 22.9219 205.175 23.3464 205.477 23.8984C205.779 24.4453 205.93 25.1563 205.93 26.0313V34H203.649V32.3594H203.555C203.404 32.6615 203.177 32.9583 202.875 33.25C202.573 33.5417 202.185 33.7839 201.711 33.9766C201.237 34.1693 200.67 34.2656 200.008 34.2656ZM200.516 32.3906C201.162 32.3906 201.714 32.263 202.172 32.0078C202.636 31.7526 202.987 31.4193 203.227 31.0078C203.472 30.5911 203.594 30.1458 203.594 29.6719V28.125C203.511 28.2083 203.349 28.2865 203.11 28.3594C202.875 28.4271 202.607 28.487 202.305 28.5391C202.003 28.5859 201.709 28.6302 201.422 28.6719C201.136 28.7083 200.896 28.7396 200.703 28.7656C200.25 28.8229 199.836 28.9193 199.461 29.0547C199.091 29.1901 198.795 29.3854 198.571 29.6406C198.352 29.8906 198.242 30.224 198.242 30.6406C198.242 31.2187 198.456 31.6562 198.883 31.9531C199.31 32.2448 199.854 32.3906 200.516 32.3906ZM208.161 34V22H210.419V23.9062H210.544C210.763 23.2604 211.148 22.7526 211.7 22.3828C212.258 22.0078 212.888 21.8203 213.591 21.8203C213.737 21.8203 213.909 21.8255 214.107 21.8359C214.31 21.8464 214.469 21.8594 214.583 21.875V24.1094C214.489 24.0833 214.323 24.0547 214.083 24.0234C213.844 23.987 213.604 23.9687 213.364 23.9687C212.812 23.9687 212.32 24.0859 211.888 24.3203C211.461 24.5495 211.122 24.8698 210.872 25.2812C210.622 25.6875 210.497 26.151 210.497 26.6719V34H208.161Z" fill="black"/>
<defs>
<linearGradient id="paint0_linear_729_607" x1="4.82664" y1="30.2427" x2="21.5898" y2="25.6159" gradientUnits="userSpaceOnUse">
<stop stop-color="#FFC200"/>
</linearGradient>
</defs>
</svg>
