<svg width="39" height="39" viewBox="0 0 39 39" fill="none" xmlns="http://www.w3.org/2000/svg">
<path d="M9.92379 37.4128C8.36704 37.4128 6.79567 36.9551 5.42254 36.0023L5.13329 35.8013C1.55071 33.3135 0.659666 28.374 3.14754 24.7914L10.6935 14.7229C11.876 13.0188 13.6846 11.8564 15.764 11.4816C17.8435 11.1057 19.9441 11.5639 21.6796 12.7691L21.9688 12.9695C23.4422 13.9922 24.5336 15.5024 25.0428 17.2216C25.2123 17.7953 24.8852 18.3981 24.311 18.5677C23.7379 18.7361 23.135 18.4106 22.965 17.8359C22.5907 16.57 21.8188 15.5024 20.7338 14.7495L20.4446 14.549C19.1836 13.6732 17.6572 13.3406 16.1486 13.6136C14.639 13.886 13.3255 14.73 12.4501 15.9904L4.90471 26.0584C3.121 28.628 3.76775 32.2144 6.36937 34.0214L6.65862 34.2224C9.25917 36.0283 12.8461 35.3826 14.6531 32.7815L16.9584 29.4633C17.3002 28.9731 17.974 28.8518 18.4664 29.1919C18.9572 29.5337 19.079 30.2086 18.7378 30.6999L16.4325 34.0176C14.8979 36.2276 12.4301 37.4128 9.92379 37.4128Z" fill="white"/>
<path d="M21.8272 27.6481C20.2688 27.6481 18.6942 27.1909 17.3189 26.2365L17.0275 26.0333C15.5553 25.0107 14.4649 23.5016 13.9568 21.784C13.7873 21.2098 14.115 20.6075 14.6886 20.4379C15.2644 20.2684 15.8656 20.5956 16.0346 21.1697C16.4084 22.4345 17.1797 23.5016 18.2647 24.2551L18.5561 24.4582C21.1555 26.263 24.7425 25.6163 26.5495 23.0152L34.0949 12.9456C35.8791 10.3759 35.2324 6.78955 32.6308 4.98255L32.3437 4.78485C31.0805 3.9068 29.5557 3.57585 28.045 3.84722C26.5354 4.11968 25.2218 4.9636 24.3465 6.22405L22.0417 9.54176C21.7005 10.0336 21.0255 10.1549 20.5343 9.81368C20.043 9.47243 19.9211 8.79751 20.2623 8.30622L22.5671 4.98851C23.7723 3.25247 25.581 2.09005 27.661 1.71522C29.7399 1.34093 31.8415 1.7981 33.577 3.00385L33.8636 3.20155C37.4494 5.69214 38.3399 10.6316 35.8515 14.2136L28.3061 24.2832C26.7867 26.4699 24.3281 27.6481 21.8272 27.6481Z" fill="white"/>
<path d="M28.5784 17.932C28.4652 17.932 28.3515 17.8968 28.254 17.8237C28.0146 17.6444 27.9658 17.3048 28.1456 17.0659L28.4425 16.6705C28.6218 16.4311 28.9619 16.3834 29.2003 16.5622C29.4397 16.7415 29.4884 17.0811 29.3086 17.32L29.0118 17.7154C28.9056 17.8578 28.7431 17.932 28.5784 17.932Z" fill="white"/>
<path d="M29.8172 16.2802C29.704 16.2802 29.5903 16.245 29.4928 16.1719C29.2533 15.9926 29.2046 15.653 29.3844 15.4141L31.7818 12.2161C32.3565 11.3884 32.5786 10.3668 32.3961 9.35609C32.2135 8.34479 31.6486 7.46513 30.8047 6.87959L30.6189 6.75121C30.373 6.58058 30.3117 6.24313 30.4818 5.99721C30.6514 5.75129 30.9888 5.68954 31.2358 5.86017L31.4222 5.98908C32.5039 6.74038 33.2281 7.86758 33.4621 9.16325C33.6961 10.4589 33.4112 11.7687 32.6604 12.8498L30.2516 16.0641C30.1444 16.2055 29.9824 16.2802 29.8172 16.2802Z" fill="white"/>
</svg>
