<svg width="39" height="39" viewBox="0 0 39 39" fill="none" xmlns="http://www.w3.org/2000/svg">
<g clip-path="url(#clip0_808_51)">
<path d="M1.18472 15.306C3.7051 11.2012 9.4381 4.31445 19.5001 4.31445C29.5621 4.31445 35.2951 11.2012 37.8155 15.306C38.5946 16.5662 39.0073 18.0185 39.0073 19.5001C39.0073 20.9817 38.5946 22.434 37.8155 23.6942C35.2951 27.799 29.5621 34.6857 19.5001 34.6857C9.4381 34.6857 3.7051 27.799 1.18472 23.6942C0.405582 22.434 -0.00712585 20.9817 -0.00712585 19.5001C-0.00712585 18.0185 0.405582 16.5662 1.18472 15.306ZM3.95535 21.9928C6.11985 25.5126 11.0192 31.4357 19.5001 31.4357C27.981 31.4357 32.8803 25.5126 35.0448 21.9928C35.5078 21.2438 35.7529 20.3806 35.7529 19.5001C35.7529 18.6195 35.5078 17.7564 35.0448 17.0073C32.8803 13.4876 27.981 7.56445 19.5001 7.56445C11.0192 7.56445 6.11985 13.4811 3.95535 17.0073C3.49244 17.7564 3.24726 18.6195 3.24726 19.5001C3.24726 20.3806 3.49244 21.2438 3.95535 21.9928Z" fill="white"/>
<path d="M19.5 11.375C21.107 11.375 22.6779 11.8515 24.014 12.7443C25.3502 13.6371 26.3916 14.906 27.0065 16.3907C27.6215 17.8753 27.7824 19.509 27.4689 21.0851C27.1554 22.6612 26.3815 24.1089 25.2452 25.2452C24.1089 26.3815 22.6612 27.1554 21.0851 27.4689C19.509 27.7824 17.8753 27.6215 16.3907 27.0065C14.906 26.3916 13.6371 25.3502 12.7443 24.014C11.8515 22.6779 11.375 21.107 11.375 19.5C11.3776 17.3459 12.2344 15.2808 13.7576 13.7576C15.2808 12.2344 17.3459 11.3776 19.5 11.375ZM19.5 24.375C20.4642 24.375 21.4067 24.0891 22.2084 23.5534C23.0101 23.0177 23.6349 22.2564 24.0039 21.3656C24.3729 20.4748 24.4694 19.4946 24.2813 18.5489C24.0932 17.6033 23.6289 16.7346 22.9471 16.0529C22.2654 15.3711 21.3967 14.9068 20.4511 14.7187C19.5054 14.5306 18.5252 14.6271 17.6344 14.9961C16.7436 15.3651 15.9823 15.9899 15.4466 16.7916C14.9109 17.5933 14.625 18.5358 14.625 19.5C14.625 20.7929 15.1386 22.0329 16.0529 22.9471C16.9671 23.8614 18.2071 24.375 19.5 24.375Z" fill="white"/>
</g>
<defs>
<clipPath id="clip0_808_51">
<rect width="39" height="39" fill="white" transform="matrix(-1 0 0 1 39 0)"/>
</clipPath>
</defs>
</svg>
